<svg width="90" height="105" viewBox="0 0 90 105" fill="none" xmlns="http://www.w3.org/2000/svg">
<path d="M58.4638 42.9771V43.0031C58.4638 42.9966 58.4638 42.9966 58.4573 42.9901C58.4638 42.9836 58.4638 42.9771 58.4638 42.9771Z" fill="#FF2C54" fill-opacity="0.9"/>
<path d="M58.4584 42.9901C58.4584 42.9966 58.4519 42.9966 58.4519 43.0031V42.9771C58.4584 42.9771 58.4584 42.9836 58.4584 42.9901Z" fill="#FF2C54" fill-opacity="0.9"/>
<path d="M2.82353 66.3662C2.81306 66.3714 2.80259 66.3767 2.79211 66.3819V66.3505C2.80259 66.3557 2.81306 66.361 2.82353 66.3662Z" fill="#FF2C54" fill-opacity="0.9"/>
<path d="M2.85541 66.3505V66.3819C2.84493 66.3767 2.8397 66.3714 2.82922 66.3662C2.83446 66.361 2.84493 66.3557 2.85541 66.3505Z" fill="#FF2C54" fill-opacity="0.9"/>
<path d="M2.85855 66.3505V66.3784C2.8418 66.3784 2.81948 66.3784 2.80273 66.3784V66.3505C2.8139 66.3561 2.82506 66.3616 2.83622 66.3672C2.83622 66.3616 2.84739 66.3561 2.85855 66.3505Z" fill="#FF2C54" fill-opacity="0.9"/>
<path d="M50.8543 7.70974C46.7081 2.8354 40.4995 0.0424779 33.8191 0.0424779C28.1672 0.0424779 22.8494 2.03363 18.7934 5.66018C14.9707 2.16106 9.70584 0 3.90021 0C-2.71663 0 -8.623 2.80354 -12.4987 7.19469C-17.0001 12.292 -17.2175 19.5504 -13.1084 24.9186L-3.1832 37.9009L6.53527 50.6124L7.25633 51.5681L14.0746 60.4832C15.3789 62.1876 17.4043 63.1646 19.6364 63.1646C21.8632 63.1646 23.8939 62.1876 25.1981 60.4832L41.9046 38.6283L51.2572 26.4053C55.5836 20.7558 55.4139 13.0673 50.8543 7.70974ZM48.4048 24.2124L39.0574 36.4354L22.3457 58.2903C21.7253 59.0974 20.7445 59.5593 19.6417 59.5593C18.5389 59.5593 17.5527 59.0974 16.9377 58.2903L11.1957 50.7823C14.9495 47.6071 18.0829 43.6407 20.3256 39.2071C22.9554 34.0035 24.3286 28.3752 24.3975 22.4655C24.4028 22.3434 24.4028 22.2212 24.4028 22.0991C24.4028 21.9398 24.4028 21.7752 24.3975 21.6159V21.5841C24.3657 19.0832 24.09 16.5876 23.581 14.1664C23.2894 12.0903 22.7115 9.99823 21.8208 7.80531C25.1292 5.11858 29.3443 3.6531 33.8138 3.6531C39.4392 3.6531 44.6457 5.98407 48.1078 10.0513C49.8204 12.0637 50.7482 14.485 50.7959 17.0602C50.8543 19.6248 50.0219 22.0991 48.4048 24.2124Z" fill="#FF2C54" fill-opacity="0.9"/>
<path d="M20.6596 22.2212C20.6596 22.3168 20.6596 22.4177 20.6543 22.5132C20.5377 32.7398 15.7023 41.7823 8.30607 47.4159L-0.479261 35.9203L-8.77681 25.0672C-12.2072 20.5752 -12.0322 14.5115 -8.26782 10.2477C-5.02833 6.57871 -0.0869179 4.23181 5.44301 4.23181C10.3685 4.23181 14.8275 6.09022 18.0298 9.09022C18.0351 9.08491 18.0351 9.08491 18.0404 9.0796C18.963 11.1185 19.6522 13.2477 19.9544 15.446C20.3892 17.4902 20.6278 19.6088 20.6596 21.7805C20.6596 21.9292 20.6596 22.0725 20.6596 22.2212Z" fill="#FF2C54" fill-opacity="0.9"/>
<path d="M23.4907 53.5376C23.4854 53.5271 23.4802 53.5166 23.475 53.5061H23.5064C23.5012 53.5166 23.4959 53.5271 23.4907 53.5376Z" fill="#FF2C54" fill-opacity="0.9"/>
<path d="M23.5064 53.5696H23.475C23.4802 53.5591 23.4854 53.5538 23.4907 53.5433C23.4959 53.5486 23.5012 53.5591 23.5064 53.5696Z" fill="#FF2C54" fill-opacity="0.9"/>
<path d="M23.5083 53.5726H23.4803C23.4803 53.5559 23.4803 53.5335 23.4803 53.5167H23.5083C23.5027 53.5279 23.4971 53.5391 23.4915 53.5503C23.4971 53.5503 23.5027 53.5614 23.5083 53.5726Z" fill="#FF2C54" fill-opacity="0.9"/>
<path d="M82.5017 101.097C87.3264 96.9026 90.0622 90.6584 89.9986 83.9681C89.9456 78.3079 87.9096 73.0035 84.2513 68.9681C87.7135 65.1079 89.8183 59.8194 89.7653 54.0053C89.7017 47.3787 86.8493 41.4902 82.4327 37.6513C77.3004 33.1911 70.0527 33.0424 64.7295 37.2053L51.8564 47.2619L39.2537 57.1115L38.3099 57.8442L29.4663 64.7522C27.7749 66.0743 26.8206 68.1132 26.8365 70.3486C26.8577 72.5787 27.8545 74.6017 29.567 75.8973L51.5436 92.4265L63.8388 101.676C69.5172 105.956 77.1891 105.711 82.5017 101.097ZM66.002 98.7982L53.7068 89.5486L31.7302 73.0141C30.919 72.4035 30.4471 71.4212 30.4418 70.3168C30.4312 69.2123 30.8819 68.2194 31.6825 67.5929L39.1264 61.7734C42.3288 65.5008 46.3212 68.607 50.7695 70.8106C55.9866 73.3964 61.6226 74.7185 67.5237 74.7345C67.6456 74.7345 67.7675 74.7345 67.8895 74.7345C68.0485 74.7345 68.2129 74.7292 68.372 74.7292H68.4038C70.901 74.6761 73.3929 74.3734 75.8053 73.8424C77.8784 73.5292 79.962 72.9345 82.1411 72.0212C84.8557 75.3132 86.3562 79.5185 86.3986 83.9946C86.4516 89.6283 84.1718 94.8637 80.1423 98.3681C78.1488 100.099 75.7417 101.055 73.1702 101.124C70.6041 101.203 68.1281 100.396 66.002 98.7982Z" fill="#FF2C54" fill-opacity="0.9"/>
<path d="M67.7357 70.9911C67.6402 70.9911 67.5395 70.9911 67.4441 70.9911C57.2325 70.9645 48.1556 66.2123 42.4613 58.8584L53.8605 49.9486L64.6181 41.538C69.0718 38.0601 75.1319 38.1822 79.4212 41.9097C83.1166 45.1221 85.5025 50.0442 85.5555 55.5822C85.6032 60.515 83.7847 64.9964 80.8209 68.2353C80.8262 68.2407 80.8262 68.2407 80.8315 68.246C78.8061 69.1858 76.6854 69.8973 74.4904 70.2212C72.4544 70.6725 70.3389 70.9327 68.1757 70.9858C68.022 70.9911 67.8788 70.9911 67.7357 70.9911Z" fill="#FF2C54" fill-opacity="0.9"/>
<path d="M36.486 74.1184C36.4964 74.1131 36.5069 74.1079 36.5121 74.1027V74.1341C36.5069 74.1236 36.4964 74.1184 36.486 74.1184Z" fill="#FF2C54" fill-opacity="0.9"/>
<path d="M36.4595 74.1289V74.0974C36.4699 74.1027 36.4752 74.1079 36.4856 74.1131C36.4752 74.1236 36.4699 74.1236 36.4595 74.1289Z" fill="#FF2C54" fill-opacity="0.9"/>
<path d="M36.4595 74.1306V74.1027C36.4762 74.1027 36.4985 74.1027 36.5153 74.1027V74.1306C36.5041 74.125 36.493 74.1194 36.4818 74.1194C36.4762 74.125 36.4706 74.125 36.4595 74.1306Z" fill="#FF2C54" fill-opacity="0.9"/>
<path d="M-10.4522 133.646C-6.2159 138.441 0.0403986 141.117 6.72085 140.995C12.3674 140.889 17.6482 138.802 21.6405 135.101C25.5269 138.531 30.8288 140.591 36.6344 140.485C43.2513 140.363 49.1046 137.453 52.8955 132.988C57.3014 127.805 57.3863 120.547 53.1818 115.253L43.018 102.457L33.0662 89.9257L32.324 88.9859L25.3466 80.2036C24.0105 78.5257 21.964 77.5806 19.7318 77.6231C17.505 77.6656 15.4903 78.6797 14.2178 80.4107L-2.08568 102.574L-11.2103 114.972C-15.4201 120.69 -15.1126 128.374 -10.4522 133.646ZM-8.31017 117.106L0.814482 104.708L17.1233 82.5452C17.7277 81.7275 18.7033 81.2496 19.8008 81.2284C20.9036 81.2071 21.895 81.6532 22.5313 82.4443L28.4111 89.8461C24.7157 93.0903 21.6564 97.1151 19.4932 101.586C16.9589 106.837 15.6917 112.492 15.7289 118.402C15.7289 118.524 15.7289 118.646 15.7342 118.768C15.7395 118.928 15.7395 119.092 15.7448 119.251V119.283C15.8243 121.784 16.1424 124.274 16.6991 126.685C17.0278 128.756 17.6482 130.837 18.576 133.014C15.3153 135.765 11.1321 137.304 6.66253 137.389C1.04247 137.496 -4.21177 135.26 -7.74817 131.257C-9.49251 129.276 -10.4734 126.871 -10.5688 124.301C-10.6695 121.736 -9.88485 119.251 -8.31017 117.106Z" fill="#FF2C54" fill-opacity="0.9"/>
<path d="M19.4667 118.582C19.4667 118.487 19.4614 118.386 19.4667 118.29C19.3978 108.064 24.0635 98.931 31.3537 93.1647L40.3564 104.496L48.8554 115.195C52.3706 119.623 52.3017 125.692 48.6168 130.02C45.4463 133.747 40.5473 136.184 35.0173 136.285C30.0918 136.375 25.6011 134.597 22.3404 131.66C22.3351 131.666 22.3351 131.666 22.3298 131.671C21.3701 129.653 20.6384 127.535 20.2991 125.342C19.8272 123.308 19.5462 121.195 19.4826 119.023C19.4773 118.874 19.472 118.731 19.4667 118.582Z" fill="#FF2C54" fill-opacity="0.9"/>
<path d="M16.0627 87.3239C16.0679 87.3343 16.0732 87.3448 16.0784 87.3501H16.047C16.0522 87.3448 16.0575 87.3343 16.0627 87.3239Z" fill="#FF2C54" fill-opacity="0.9"/>
<path d="M16.047 87.292H16.0784C16.0732 87.3025 16.0679 87.3077 16.0679 87.3182C16.0575 87.313 16.0522 87.3025 16.047 87.292Z" fill="#FF2C54" fill-opacity="0.9"/>
<path d="M16.047 87.292H16.0749C16.0749 87.3088 16.0805 87.3311 16.0749 87.3479H16.047C16.0526 87.3367 16.0582 87.3255 16.0582 87.3144C16.0582 87.3144 16.0526 87.3032 16.047 87.292Z" fill="#FF2C54" fill-opacity="0.9"/>
<path d="M-43.812 40.8637C-48.5626 45.1487 -51.1764 51.4407 -50.9909 58.1257C-50.8371 63.7806 -48.7004 69.0531 -44.9679 73.0142C-48.3558 76.9381 -50.3652 82.2637 -50.2062 88.0779C-50.0206 94.6991 -47.0621 100.535 -42.5714 104.294C-37.3596 108.658 -30.1118 108.674 -24.8629 104.416L-12.1753 94.1204L0.24184 84.0372L1.17498 83.2885L9.88608 76.216C11.5509 74.862 12.4734 72.8071 12.4098 70.5717C12.3462 68.3416 11.3176 66.3345 9.57857 65.0761L-12.7055 48.9558L-25.1651 39.9345C-30.923 35.7664 -38.5896 36.1487 -43.812 40.8637ZM-27.2753 42.8549L-14.8157 51.8761L7.46309 68.0018C8.28489 68.5965 8.77267 69.5735 8.80449 70.6726C8.8363 71.777 8.40154 72.7753 7.61155 73.4177L0.278954 79.3699C-2.99235 75.7009 -7.04304 72.6691 -11.5285 70.5505C-16.7933 68.0602 -22.4505 66.8443 -28.3516 66.9345C-28.4735 66.9345 -28.5954 66.9399 -28.7174 66.9399C-28.8765 66.9452 -29.0408 66.9505 -29.1999 66.9558H-29.2317C-31.7289 67.0567 -34.2102 67.4018 -36.612 67.9806C-38.6798 68.331 -40.7528 68.9682 -42.916 69.9186C-45.6889 66.6797 -47.2689 62.5009 -47.3962 58.0301C-47.5446 52.3965 -45.3655 47.1186 -41.3996 43.5398C-39.4379 41.7717 -37.0468 40.7735 -34.4806 40.6514C-31.9198 40.5345 -29.4279 41.2991 -27.2753 42.8549Z" fill="#FF2C54" fill-opacity="0.9"/>
</svg>
