<svg width="66" height="81" viewBox="0 0 66 81" fill="none" xmlns="http://www.w3.org/2000/svg">
<g clip-path="url(#clip0_200_12889)">
<path d="M33.7683 67.9951C33.7619 67.9983 33.7554 68.0015 33.749 68.0047V67.9854C33.7554 67.9886 33.7619 67.9918 33.7683 67.9951Z" fill="#03A696"/>
<path d="M33.7876 67.9854V68.0047C33.7811 68.0015 33.7779 67.9983 33.7715 67.9951C33.7747 67.9918 33.7811 67.9886 33.7876 67.9854Z" fill="#03A696"/>
<path d="M21.7133 30.1847C18.6417 33.8668 18.4939 39.1104 21.2988 42.9885L28.075 52.3671L33.2768 59.5674C33.5692 59.9723 33.4374 60.5442 32.9973 60.7819C30.4494 62.1571 27.6059 63.0278 24.5953 63.2688C24.5311 63.2752 24.4668 63.2784 24.4025 63.2816C23.9495 63.3138 23.4965 63.333 23.037 63.3363V63.3202C23.0306 63.3234 23.0242 63.3234 23.0177 63.3266C23.0113 63.3234 23.0017 63.3202 22.9952 63.3202V63.3363C22.9631 63.3363 22.931 63.3363 22.8989 63.3363C10.7956 63.3363 0.986328 53.164 0.986328 40.6141C0.986328 36.7649 1.90845 33.1375 3.54065 29.963C3.54386 29.9566 3.54707 29.947 3.55029 29.9405C3.96797 29.0923 4.4949 28.3019 5.05396 27.5437C5.05396 27.5437 5.05396 27.5437 5.05396 27.5404L23.0113 0.5L26.8958 6.38297L39.224 25.0504C39.2272 25.0504 39.2272 25.0504 39.2272 25.0536C39.4714 25.3877 39.7156 25.7251 39.9566 26.0721C39.4843 26.6215 40.008 26.0143 39.5357 26.5605C37.55 25.5548 35.2945 24.9861 32.9041 24.9861C28.3898 24.9861 24.3608 27.0135 21.7133 30.1847Z" fill="url(#paint0_linear_200_12889)"/>
<path d="M33.8134 60.2839L33.8487 60.3321C31.0888 61.9868 27.9465 63.0375 24.5921 63.3041C24.5278 63.2849 24.4636 63.2688 24.3993 63.2495C15.1299 60.6052 8.31836 51.8081 8.31836 41.3595C8.31836 37.5135 9.24048 33.8893 10.8695 30.7149C10.8727 30.7084 10.8759 30.702 10.8791 30.6924C11.2968 29.8442 11.8237 29.0538 12.3828 28.2955L26.8926 6.46008L39.2176 25.1114C39.2208 25.1114 39.2208 25.1114 39.2208 25.1146C39.4393 25.4135 39.6578 25.7187 39.8763 26.0303C40.0755 26.3131 39.7638 26.6729 39.4554 26.5187C37.4858 25.5355 35.2592 24.9829 32.8977 24.9829C28.3834 24.9829 24.3543 27.0071 21.7068 30.1751C18.6352 33.854 18.4874 39.0943 21.2924 42.9692L28.0653 52.3382L33.8134 60.2839Z" fill="url(#paint1_linear_200_12889)"/>
<path d="M33.787 67.9854V68.0015C33.7774 68.0015 33.7645 68.0015 33.7549 68.0015V67.9854C33.7613 67.9886 33.7677 67.9918 33.7742 67.9951C33.7742 67.9918 33.7806 67.9886 33.787 67.9854Z" fill="#045DA5"/>
<path d="M62.8748 32.5045C60.3622 29.555 56.5998 27.8649 52.5515 27.8649C49.1264 27.8649 45.9038 29.0698 43.4459 31.2643C41.1293 29.1469 37.9421 27.8392 34.4206 27.8392C30.4108 27.8392 26.8316 29.5357 24.4829 32.1928C21.7551 35.2773 21.6233 39.6694 24.1134 42.9178L30.1281 50.7735L36.0175 58.4654L36.4544 59.0437L40.5896 64.4383C41.3799 65.4697 42.6073 66.0608 43.96 66.0608C45.3094 66.0608 46.54 65.4697 47.3304 64.4383L57.4545 51.2137L63.1222 43.8174C65.7408 40.3988 65.6379 35.7464 62.8748 32.5045ZM61.3904 42.4872L55.7259 49.8835L45.5986 63.1081C45.2227 63.5965 44.6283 63.876 43.96 63.876C43.2917 63.876 42.6941 63.5965 42.3213 63.1081L38.8417 58.565C41.1165 56.6436 43.0154 54.2435 44.3744 51.5607C45.9681 48.4119 46.8002 45.0062 46.842 41.4301C46.8452 41.3562 46.8452 41.2823 46.8452 41.2084C46.8452 41.1121 46.8452 41.0125 46.842 40.9161V40.8968C46.8227 39.3835 46.6557 37.8734 46.3472 36.4083C46.1705 35.152 45.8203 33.8861 45.2805 32.5591C47.2854 30.9333 49.8397 30.0466 52.5483 30.0466C55.9572 30.0466 59.1124 31.4571 61.2105 33.9182C62.2483 35.1359 62.8105 36.601 62.8394 38.1593C62.8748 39.7112 62.3703 41.2084 61.3904 42.4872Z" fill="url(#paint2_linear_200_12889)"/>
<path d="M44.5769 41.2824C44.5769 41.3402 44.5768 41.4013 44.5736 41.4591C44.5029 47.6473 41.5727 53.119 37.0906 56.528L31.7635 49.5719L26.7384 43.0078C24.6596 40.2896 24.7656 36.6204 27.0468 34.0403C29.01 31.8202 32.0045 30.4 35.3556 30.4C38.3405 30.4 41.0426 31.5246 42.9832 33.3399C42.9864 33.3367 42.9864 33.3367 42.9896 33.3335C43.5487 34.5673 43.9664 35.8557 44.1495 37.1858C44.413 38.4228 44.5576 39.7048 44.5769 41.0189C44.5769 41.1089 44.5769 41.1956 44.5769 41.2824Z" fill="url(#paint3_linear_200_12889)"/>
<path d="M5.50986 76.4517V80.3458H3.65918V69.9197H7.56616C8.23446 69.9197 8.80959 70.0096 9.28832 70.1896C9.76706 70.3695 10.1623 70.6073 10.4707 70.9028C10.7791 71.1984 11.0073 71.5358 11.1583 71.9182C11.3093 72.3005 11.3832 72.6957 11.3832 73.107C11.3832 73.5439 11.3061 73.9648 11.1519 74.3664C10.9976 74.7681 10.7631 75.1247 10.445 75.4332C10.1269 75.7416 9.7285 75.989 9.24977 76.1721C8.77103 76.3553 8.20876 76.4485 7.56616 76.4485H5.50986V76.4517ZM5.50986 71.645V74.7295H7.16775C7.5019 74.7295 7.80714 74.7038 8.08667 74.6524C8.3662 74.601 8.60396 74.5142 8.80638 74.3954C9.00879 74.2765 9.16302 74.1126 9.26904 73.907C9.37507 73.7014 9.42969 73.4475 9.42969 73.1487C9.42969 72.6346 9.24655 72.2555 8.87706 72.0113C8.50757 71.7671 7.93887 71.645 7.16775 71.645H5.50986Z" fill="#FF2156"/>
<path d="M12.4238 80.3458V69.9197H14.2231V80.3458H12.4238Z" fill="#FF2156"/>
<path d="M19.3387 80.5C18.8857 80.5 18.4487 80.4583 18.0342 80.3715C17.6197 80.2848 17.2535 80.1498 16.9418 79.9603C16.6301 79.7707 16.3795 79.5265 16.19 79.2213C16.0004 78.916 15.9072 78.5433 15.9072 78.0967C15.9072 77.6951 15.9908 77.3385 16.1578 77.03C16.3249 76.7216 16.5562 76.4645 16.8518 76.2589C17.1474 76.0533 17.5041 75.8991 17.9186 75.7962C18.333 75.6934 18.7861 75.642 19.2744 75.642C19.4704 75.642 19.6889 75.6484 19.9235 75.6613C20.158 75.6741 20.415 75.7031 20.6881 75.7448V75.642C20.6881 75.2308 20.5339 74.9512 20.2255 74.8066C19.917 74.6621 19.5154 74.5882 19.0174 74.5882C18.8278 74.5882 18.6222 74.6042 18.4005 74.6396C18.1788 74.6749 17.9539 74.7199 17.7258 74.7809C17.4977 74.842 17.2792 74.9095 17.0639 74.9866C16.8486 75.0637 16.6526 75.144 16.4727 75.2308L16.704 73.3929C16.9964 73.2483 17.3691 73.1198 17.8222 73.0138C18.2752 72.9078 18.7571 72.8531 19.2616 72.8531C19.7242 72.8531 20.1516 72.9046 20.5468 73.0074C20.942 73.1102 21.2825 73.274 21.5685 73.4957C21.8545 73.7174 22.0794 74.013 22.2432 74.3825C22.4071 74.752 22.4874 75.1954 22.4874 75.7191V79.9346C22.0247 80.1145 21.5203 80.2526 20.9709 80.3522C20.4247 80.4518 19.8817 80.5 19.3387 80.5ZM20.6914 77.2099C20.5211 77.1682 20.3219 77.1296 20.1002 77.1007C19.8785 77.0718 19.6664 77.0557 19.4704 77.0557C19.2391 77.0557 19.0238 77.0718 18.8214 77.1007C18.619 77.1296 18.4423 77.181 18.288 77.2549C18.1338 77.3288 18.0117 77.4252 17.9218 77.5441C17.8318 77.663 17.7868 77.8108 17.7868 77.9811C17.7868 78.3152 17.9378 78.5498 18.2431 78.6815C18.5483 78.8132 18.921 78.8807 19.3676 78.8807C19.5893 78.8807 19.8174 78.8646 20.0488 78.8293C20.2801 78.7939 20.4954 78.7425 20.6914 78.6751V77.2099Z" fill="#FF2156"/>
<path d="M27.1944 78.7393C27.5639 78.7393 27.8788 78.6976 28.1454 78.6108C28.4121 78.5241 28.5438 78.3795 28.5438 78.1738C28.5438 77.9843 28.4603 77.8397 28.2932 77.7369C28.1262 77.6341 27.8113 77.5345 27.3486 77.4413L26.7703 77.3385C25.9478 77.1842 25.3052 76.9272 24.8425 76.5674C24.3798 76.2075 24.1485 75.7159 24.1485 75.0894C24.1485 74.405 24.4152 73.8588 24.9517 73.4572C25.4883 73.0556 26.2273 72.8531 27.1687 72.8531C27.7438 72.8531 28.2964 72.9078 28.833 73.0202C29.3696 73.1327 29.8387 73.2998 30.2403 73.5214L29.5848 75.1922C29.421 75.1054 29.2378 75.0283 29.0322 74.9544C28.8266 74.8805 28.6113 74.8195 28.3896 74.7681C28.1679 74.7167 27.943 74.6781 27.7149 74.6524C27.4868 74.6267 27.2715 74.6139 27.0659 74.6139C26.3108 74.6139 25.9349 74.7713 25.9349 75.0894C25.9349 75.2532 26.0217 75.3882 26.1919 75.4942C26.3622 75.6002 26.6771 75.6966 27.1301 75.7834L27.6956 75.8862C28.682 76.0758 29.3856 76.3585 29.8098 76.7344C30.2339 77.1103 30.4459 77.6244 30.4459 78.2767C30.4459 78.5947 30.3785 78.8871 30.2403 79.157C30.1021 79.4269 29.8965 79.6615 29.6234 79.8639C29.3503 80.0663 29.0033 80.2205 28.5888 80.333C28.1743 80.4454 27.6924 80.5 27.143 80.5C26.8506 80.5 26.5582 80.484 26.2626 80.4486C25.967 80.4133 25.6779 80.3651 25.3951 80.3008C25.1124 80.2366 24.8457 80.1595 24.5919 80.0695C24.338 79.9795 24.1099 79.8735 23.9043 79.7546L24.5854 78.0068C24.91 78.222 25.3052 78.3955 25.7678 78.5337C26.2305 78.6719 26.706 78.7393 27.1944 78.7393Z" fill="#FF2156"/>
<path d="M40.9749 76.3232C40.9749 75.6645 40.8625 75.2147 40.6344 74.9737C40.4062 74.7327 40.0464 74.6139 39.5484 74.6139C39.3524 74.6139 39.1307 74.6396 38.8865 74.691C38.6423 74.7424 38.4078 74.8195 38.1861 74.9223C38.2118 74.9737 38.2375 75.054 38.2632 75.1665C38.2889 75.2789 38.3114 75.3978 38.3274 75.5263C38.3435 75.6549 38.3564 75.7866 38.366 75.9183C38.3756 76.0501 38.3788 76.1689 38.3788 76.2718V80.3458H36.5796V76.3232C36.5796 75.989 36.5507 75.7127 36.496 75.4942C36.4414 75.2757 36.3515 75.1022 36.2326 74.9737C36.1137 74.8452 35.9595 74.752 35.7763 74.6974C35.5932 74.6428 35.3715 74.6139 35.1145 74.6139C34.9185 74.6139 34.7321 74.6299 34.5618 74.6653L33.9321 74.7681V80.3458H32.1328V73.2516C32.7079 73.1487 33.2606 73.0556 33.7907 72.9752C34.3209 72.8949 34.7707 72.8531 35.1402 72.8531C35.5257 72.8531 35.9016 72.8917 36.2711 72.9688C36.6406 73.0459 36.9426 73.1841 37.1836 73.3801C37.5595 73.2259 37.9708 73.1005 38.411 73.0009C38.8512 72.9013 39.2528 72.8531 39.6126 72.8531C40.0592 72.8531 40.4737 72.8949 40.8593 72.9817C41.2448 73.0684 41.579 73.2226 41.8617 73.4443C42.1445 73.666 42.3662 73.9713 42.53 74.3568C42.6939 74.7424 42.7742 75.2308 42.7742 75.8219V80.3458H40.9749V76.3232Z" fill="#FF2156"/>
<path d="M47.7479 80.5C47.2948 80.5 46.8579 80.4583 46.4434 80.3715C46.0289 80.2848 45.6626 80.1498 45.351 79.9603C45.0393 79.7707 44.7887 79.5265 44.5991 79.2213C44.4096 78.916 44.3164 78.5433 44.3164 78.0967C44.3164 77.6951 44.3999 77.3385 44.567 77.03C44.7341 76.7216 44.9654 76.4645 45.261 76.2589C45.5566 76.0533 45.9133 75.8991 46.3277 75.7962C46.7422 75.6934 47.1952 75.642 47.6836 75.642C47.8796 75.642 48.0981 75.6484 48.3326 75.6613C48.5672 75.6741 48.8242 75.7031 49.0973 75.7448V75.642C49.0973 75.2308 48.9431 74.9512 48.6347 74.8066C48.3262 74.6621 47.9246 74.5882 47.4266 74.5882C47.237 74.5882 47.0314 74.6042 46.8097 74.6396C46.588 74.6749 46.3631 74.7199 46.1349 74.7809C45.9068 74.842 45.6883 74.9095 45.4731 74.9866C45.2578 75.0637 45.0618 75.144 44.8819 75.2308L45.1132 73.3929C45.4056 73.2483 45.7783 73.1198 46.2313 73.0138C46.6844 72.9078 47.1663 72.8531 47.6708 72.8531C48.1334 72.8531 48.5608 72.9046 48.956 73.0074C49.3511 73.1102 49.6917 73.274 49.9777 73.4957C50.2636 73.7174 50.4885 74.013 50.6524 74.3825C50.8163 74.752 50.8966 75.1954 50.8966 75.7191V79.9346C50.4339 80.1145 49.9295 80.2526 49.3801 80.3522C48.8306 80.4518 48.2876 80.5 47.7479 80.5ZM49.0973 77.2099C48.927 77.1682 48.7278 77.1296 48.5061 77.1007C48.2844 77.0718 48.0724 77.0557 47.8764 77.0557C47.6451 77.0557 47.4298 77.0718 47.2274 77.1007C47.0249 77.1296 46.8482 77.181 46.694 77.2549C46.5398 77.3288 46.4177 77.4252 46.3277 77.5441C46.2378 77.663 46.1928 77.8108 46.1928 77.9811C46.1928 78.3152 46.3438 78.5498 46.649 78.6815C46.9543 78.8132 47.327 78.8807 47.7736 78.8807C47.9953 78.8807 48.2234 78.8646 48.4547 78.8293C48.6861 78.7939 48.9013 78.7425 49.0973 78.6751V77.2099Z" fill="#FF2156"/>
</g>
<defs>
<linearGradient id="paint0_linear_200_12889" x1="0.979902" y1="31.9191" x2="39.9584" y2="31.9191" gradientUnits="userSpaceOnUse">
<stop stop-color="#FF2156"/>
<stop offset="1" stop-color="#FF4D4D"/>
</linearGradient>
<linearGradient id="paint1_linear_200_12889" x1="11.6386" y1="0.0707183" x2="33.174" y2="61.6007" gradientUnits="userSpaceOnUse">
<stop stop-color="#FF2156"/>
<stop offset="1" stop-color="#FF4D4D"/>
</linearGradient>
<linearGradient id="paint2_linear_200_12889" x1="22.3372" y1="46.9489" x2="65.0198" y2="46.9489" gradientUnits="userSpaceOnUse">
<stop stop-color="#FF2156"/>
<stop offset="1" stop-color="#FF4D4D"/>
</linearGradient>
<linearGradient id="paint3_linear_200_12889" x1="31.2964" y1="28.1414" x2="42.556" y2="61.3058" gradientUnits="userSpaceOnUse">
<stop stop-color="#FF2156"/>
<stop offset="1" stop-color="#FF4D4D"/>
</linearGradient>
<clipPath id="clip0_200_12889">
<rect width="64.0411" height="80" fill="white" transform="translate(0.979492 0.5)"/>
</clipPath>
</defs>
</svg>
