<svg width="76" height="81" viewBox="0 0 76 81" fill="none" xmlns="http://www.w3.org/2000/svg">
<path d="M43.2679 67.9951C43.2615 67.9983 43.255 68.0015 43.2486 68.0047V67.9854C43.255 67.9886 43.2615 67.9919 43.2679 67.9951Z" fill="#03A696"/>
<path d="M43.2872 67.9854V68.0047C43.2808 68.0015 43.2775 67.9983 43.2711 67.9951C43.2743 67.9919 43.2808 67.9886 43.2872 67.9854Z" fill="#03A696"/>
<path d="M31.2128 30.1847C28.1412 33.8668 27.9934 39.1104 30.7983 42.9885L37.5745 52.3671L42.7763 59.5674C43.0687 59.9723 42.937 60.5442 42.4968 60.7819C39.9489 62.1571 37.1054 63.0278 34.0948 63.2688C34.0306 63.2752 33.9663 63.2784 33.9021 63.2816C33.449 63.3138 32.996 63.3331 32.5365 63.3363V63.3202C32.5301 63.3234 32.5237 63.3234 32.5173 63.3266C32.5108 63.3234 32.5012 63.3202 32.4948 63.3202V63.3363C32.4626 63.3363 32.4305 63.3363 32.3984 63.3363C20.2951 63.3363 10.4859 53.164 10.4859 40.6141C10.4859 36.7649 11.408 33.1375 13.0402 29.963C13.0434 29.9566 13.0466 29.947 13.0498 29.9405C13.4675 29.0923 13.9944 28.3019 14.5535 27.5437C14.5535 27.5437 14.5535 27.5437 14.5535 27.5404L32.5108 0.5L36.3953 6.38297L48.7235 25.0504C48.7268 25.0504 48.7268 25.0504 48.7268 25.0536C48.9709 25.3877 49.2151 25.7251 49.4561 26.0721C48.9838 26.6215 49.5075 26.0143 49.0352 26.5605C47.0496 25.5548 44.7941 24.9861 42.4036 24.9861C37.8894 24.9861 33.8603 27.0135 31.2128 30.1847Z" fill="url(#paint0_linear_1_3)"/>
<path d="M43.3129 60.2839L43.3482 60.3321C40.5883 61.9868 37.446 63.0374 34.0916 63.3041C34.0274 63.2848 33.9631 63.2688 33.8988 63.2495C24.6294 60.6052 17.8179 51.8081 17.8179 41.3595C17.8179 37.5135 18.74 33.8893 20.369 30.7149C20.3722 30.7084 20.3754 30.702 20.3786 30.6924C20.7963 29.8441 21.3232 29.0538 21.8823 28.2955L36.3921 6.46008L48.7171 25.1114C48.7203 25.1114 48.7203 25.1114 48.7203 25.1146C48.9388 25.4135 49.1573 25.7187 49.3758 26.0303C49.575 26.3131 49.2633 26.6729 48.9549 26.5187C46.9853 25.5355 44.7587 24.9829 42.3972 24.9829C37.8829 24.9829 33.8539 27.0071 31.2064 30.1751C28.1348 33.8539 27.987 39.0943 30.7919 42.9692L37.5649 52.3382L43.3129 60.2839Z" fill="url(#paint1_linear_1_3)"/>
<path d="M43.2872 67.9854V68.0015C43.2775 68.0015 43.2647 68.0015 43.255 68.0015V67.9854C43.2615 67.9886 43.2679 67.9919 43.2743 67.9951C43.2743 67.9919 43.2808 67.9886 43.2872 67.9854Z" fill="#045DA5"/>
<path d="M72.3743 32.5045C69.8617 29.555 66.0993 27.865 62.051 27.865C58.6259 27.865 55.4033 29.0698 52.9454 31.2643C50.6288 29.1469 47.4416 27.8392 43.9201 27.8392C39.9103 27.8392 36.3311 29.5357 33.9824 32.1928C31.2546 35.2773 31.1228 39.6694 33.6129 42.9178L39.6276 50.7735L45.517 58.4654L45.9539 59.0437L50.0891 64.4383C50.8794 65.4697 52.1068 66.0609 53.4595 66.0609C54.8089 66.0609 56.0395 65.4697 56.8299 64.4383L66.954 51.2137L72.6217 43.8174C75.2403 40.3988 75.1375 35.7464 72.3743 32.5045ZM70.8899 42.4872L65.2254 49.8835L55.0981 63.1081C54.7222 63.5965 54.1278 63.876 53.4595 63.876C52.7912 63.876 52.1936 63.5965 51.8209 63.1081L48.3412 58.565C50.616 56.6436 52.5149 54.2435 53.8739 51.5607C55.4676 48.412 56.2997 45.0062 56.3415 41.4302C56.3447 41.3563 56.3447 41.2824 56.3447 41.2085C56.3447 41.1121 56.3447 41.0125 56.3415 40.9161V40.8968C56.3222 39.3835 56.1552 37.8734 55.8467 36.4083C55.67 35.152 55.3198 33.8861 54.78 32.5591C56.7849 30.9333 59.3392 30.0466 62.0478 30.0466C65.4567 30.0466 68.6119 31.4571 70.71 33.9182C71.7478 35.1359 72.31 36.601 72.3389 38.1593C72.3743 39.7112 71.8699 41.2085 70.8899 42.4872Z" fill="url(#paint2_linear_1_3)"/>
<path d="M54.0764 41.2824C54.0764 41.3402 54.0764 41.4012 54.0731 41.4591C54.0025 47.6473 51.0722 53.119 46.5901 56.528L41.263 49.5718L36.2379 43.0077C34.1591 40.2896 34.2651 36.6203 36.5463 34.0403C38.5095 31.8201 41.504 30.4 44.8551 30.4C47.84 30.4 50.5421 31.5245 52.4827 33.3399C52.4859 33.3367 52.4859 33.3367 52.4891 33.3334C53.0482 34.5672 53.4659 35.8556 53.649 37.1858C53.9125 38.4228 54.0571 39.7048 54.0764 41.0189C54.0764 41.1089 54.0764 41.1956 54.0764 41.2824Z" fill="url(#paint3_linear_1_3)"/>
<path d="M15.0097 76.4516V80.3458H13.1591V69.9197H17.066C17.7343 69.9197 18.3095 70.0096 18.7882 70.1895C19.2669 70.3695 19.6621 70.6072 19.9706 70.9028C20.279 71.1984 20.5071 71.5358 20.6582 71.9181C20.8092 72.3005 20.8831 72.6957 20.8831 73.1069C20.8831 73.5439 20.806 73.9648 20.6517 74.3664C20.4975 74.768 20.263 75.1247 19.9449 75.4331C19.6268 75.7416 19.2284 75.989 18.7496 76.1721C18.2709 76.3553 17.7086 76.4484 17.066 76.4484H15.0097V76.4516ZM15.0097 71.645V74.7295H16.6676C17.0018 74.7295 17.307 74.7038 17.5865 74.6524C17.8661 74.601 18.1038 74.5142 18.3063 74.3953C18.5087 74.2765 18.6629 74.1126 18.7689 73.907C18.8749 73.7013 18.9296 73.4475 18.9296 73.1487C18.9296 72.6346 18.7464 72.2555 18.3769 72.0113C18.0074 71.7671 17.4387 71.645 16.6676 71.645H15.0097Z" fill="#FF2156"/>
<path d="M21.9241 80.3458V69.9197H23.7233V80.3458H21.9241Z" fill="#FF2156"/>
<path d="M28.8384 80.5C28.3854 80.5 27.9484 80.4582 27.5339 80.3715C27.1195 80.2847 26.7532 80.1498 26.4415 79.9602C26.1299 79.7707 25.8792 79.5265 25.6897 79.2212C25.5001 78.916 25.4069 78.5433 25.4069 78.0967C25.4069 77.6951 25.4905 77.3384 25.6576 77.03C25.8246 76.7215 26.056 76.4645 26.3516 76.2589C26.6471 76.0532 27.0038 75.899 27.4183 75.7962C27.8327 75.6934 28.2858 75.642 28.7741 75.642C28.9701 75.642 29.1886 75.6484 29.4232 75.6612C29.6577 75.6741 29.9148 75.703 30.1879 75.7448V75.642C30.1879 75.2307 30.0336 74.9512 29.7252 74.8066C29.4167 74.662 29.0151 74.5881 28.5171 74.5881C28.3275 74.5881 28.1219 74.6042 27.9002 74.6395C27.6785 74.6749 27.4536 74.7198 27.2255 74.7809C26.9974 74.8419 26.7789 74.9094 26.5636 74.9865C26.3483 75.0636 26.1524 75.144 25.9724 75.2307L26.2038 73.3929C26.4961 73.2483 26.8688 73.1198 27.3219 73.0138C27.7749 72.9077 28.2569 72.8531 28.7613 72.8531C29.224 72.8531 29.6513 72.9045 30.0465 73.0073C30.4417 73.1101 30.7823 73.274 31.0682 73.4957C31.3542 73.7174 31.5791 74.013 31.7429 74.3825C31.9068 74.752 31.9871 75.1954 31.9871 75.7191V79.9345C31.5245 80.1144 31.02 80.2526 30.4706 80.3522C29.9244 80.4518 29.3814 80.5 28.8384 80.5ZM30.1911 77.2099C30.0208 77.1681 29.8216 77.1296 29.5999 77.1007C29.3782 77.0717 29.1661 77.0557 28.9701 77.0557C28.7388 77.0557 28.5235 77.0717 28.3211 77.1007C28.1187 77.1296 27.942 77.181 27.7878 77.2549C27.6335 77.3288 27.5114 77.4252 27.4215 77.5441C27.3315 77.6629 27.2865 77.8107 27.2865 77.981C27.2865 78.3152 27.4375 78.5497 27.7428 78.6815C28.048 78.8132 28.4207 78.8807 28.8673 78.8807C29.089 78.8807 29.3171 78.8646 29.5485 78.8292C29.7798 78.7939 29.9951 78.7425 30.1911 78.675V77.2099Z" fill="#FF2156"/>
<path d="M36.6941 78.7393C37.0636 78.7393 37.3785 78.6975 37.6452 78.6108C37.9119 78.524 38.0436 78.3794 38.0436 78.1738C38.0436 77.9842 37.9601 77.8397 37.793 77.7368C37.6259 77.634 37.311 77.5344 36.8484 77.4412L36.27 77.3384C35.4475 77.1842 34.8049 76.9272 34.3422 76.5673C33.8796 76.2075 33.6482 75.7159 33.6482 75.0893C33.6482 74.405 33.9149 73.8588 34.4515 73.4571C34.988 73.0555 35.727 72.8531 36.6684 72.8531C37.2436 72.8531 37.7962 72.9077 38.3328 73.0202C38.8693 73.1326 39.3384 73.2997 39.74 73.5214L39.0846 75.1922C38.9207 75.1054 38.7376 75.0283 38.532 74.9544C38.3263 74.8805 38.1111 74.8194 37.8894 74.768C37.6677 74.7166 37.4428 74.6781 37.2146 74.6524C36.9865 74.6267 36.7713 74.6138 36.5656 74.6138C35.8106 74.6138 35.4347 74.7713 35.4347 75.0893C35.4347 75.2532 35.5214 75.3881 35.6917 75.4942C35.862 75.6002 36.1768 75.6966 36.6299 75.7833L37.1954 75.8862C38.1817 76.0757 38.8854 76.3585 39.3095 76.7344C39.7336 77.1103 39.9457 77.6244 39.9457 78.2766C39.9457 78.5947 39.8782 78.8871 39.74 79.157C39.6019 79.4269 39.3963 79.6614 39.1232 79.8638C38.85 80.0662 38.503 80.2205 38.0886 80.3329C37.6741 80.4454 37.1922 80.5 36.6427 80.5C36.3504 80.5 36.058 80.4839 35.7624 80.4486C35.4668 80.4132 35.1776 80.3651 34.8949 80.3008C34.6121 80.2365 34.3455 80.1594 34.0916 80.0695C33.8378 79.9795 33.6097 79.8735 33.404 79.7546L34.0852 78.0067C34.4097 78.222 34.8049 78.3955 35.2676 78.5337C35.7302 78.6718 36.2058 78.7393 36.6941 78.7393Z" fill="#FF2156"/>
<path d="M50.4746 76.3231C50.4746 75.6645 50.3622 75.2146 50.134 74.9737C49.9059 74.7327 49.5461 74.6138 49.048 74.6138C48.8521 74.6138 48.6304 74.6395 48.3862 74.6909C48.142 74.7423 47.9074 74.8195 47.6857 74.9223C47.7115 74.9737 47.7372 75.054 47.7629 75.1665C47.7886 75.2789 47.8111 75.3978 47.8271 75.5263C47.8432 75.6548 47.856 75.7866 47.8657 75.9183C47.8753 76.05 47.8785 76.1689 47.8785 76.2717V80.3458H46.0793V76.3231C46.0793 75.989 46.0503 75.7127 45.9957 75.4942C45.9411 75.2757 45.8511 75.1022 45.7323 74.9737C45.6134 74.8452 45.4592 74.752 45.276 74.6974C45.0929 74.6427 44.8712 74.6138 44.6141 74.6138C44.4181 74.6138 44.2318 74.6299 44.0615 74.6652L43.4318 74.768V80.3458H41.6325V73.2515C42.2076 73.1487 42.7602 73.0555 43.2904 72.9752C43.8205 72.8949 44.2703 72.8531 44.6398 72.8531C45.0254 72.8531 45.4013 72.8917 45.7708 72.9688C46.1403 73.0459 46.4423 73.184 46.6833 73.38C47.0592 73.2258 47.4705 73.1005 47.9107 73.0009C48.3508 72.9013 48.7525 72.8531 49.1123 72.8531C49.5589 72.8531 49.9734 72.8949 50.3589 72.9816C50.7445 73.0684 51.0787 73.2226 51.3614 73.4443C51.6441 73.666 51.8658 73.9712 52.0297 74.3568C52.1936 74.7423 52.2739 75.2307 52.2739 75.8219V80.3458H50.4746V76.3231Z" fill="#FF2156"/>
<path d="M57.2476 80.5C56.7945 80.5 56.3576 80.4582 55.9431 80.3715C55.5286 80.2847 55.1624 80.1498 54.8507 79.9602C54.539 79.7707 54.2884 79.5265 54.0989 79.2212C53.9093 78.916 53.8161 78.5433 53.8161 78.0967C53.8161 77.6951 53.8997 77.3384 54.0667 77.03C54.2338 76.7215 54.4651 76.4645 54.7607 76.2589C55.0563 76.0532 55.413 75.899 55.8274 75.7962C56.2419 75.6934 56.6949 75.642 57.1833 75.642C57.3793 75.642 57.5978 75.6484 57.8323 75.6612C58.0669 75.6741 58.3239 75.703 58.597 75.7448V75.642C58.597 75.2307 58.4428 74.9512 58.1344 74.8066C57.8259 74.662 57.4243 74.5881 56.9263 74.5881C56.7367 74.5881 56.5311 74.6042 56.3094 74.6395C56.0877 74.6749 55.8628 74.7198 55.6347 74.7809C55.4065 74.8419 55.1881 74.9094 54.9728 74.9865C54.7575 75.0636 54.5615 75.144 54.3816 75.2307L54.6129 73.3929C54.9053 73.2483 55.278 73.1198 55.731 73.0138C56.1841 72.9077 56.666 72.8531 57.1705 72.8531C57.6331 72.8531 58.0605 72.9045 58.4557 73.0073C58.8509 73.1101 59.1914 73.274 59.4774 73.4957C59.7633 73.7174 59.9883 74.013 60.1521 74.3825C60.316 74.752 60.3963 75.1954 60.3963 75.7191V79.9345C59.9336 80.1144 59.4292 80.2526 58.8798 80.3522C58.3304 80.4518 57.7874 80.5 57.2476 80.5ZM58.597 77.2099C58.4267 77.1681 58.2275 77.1296 58.0058 77.1007C57.7841 77.0717 57.5721 77.0557 57.3761 77.0557C57.1448 77.0557 56.9295 77.0717 56.7271 77.1007C56.5247 77.1296 56.3479 77.181 56.1937 77.2549C56.0395 77.3288 55.9174 77.4252 55.8274 77.5441C55.7375 77.6629 55.6925 77.8107 55.6925 77.981C55.6925 78.3152 55.8435 78.5497 56.1487 78.6815C56.454 78.8132 56.8267 78.8807 57.2733 78.8807C57.495 78.8807 57.7231 78.8646 57.9544 78.8292C58.1858 78.7939 58.401 78.7425 58.597 78.675V77.2099Z" fill="#FF2156"/>
<defs>
<linearGradient id="paint0_linear_1_3" x1="10.4794" y1="31.9191" x2="49.4579" y2="31.9191" gradientUnits="userSpaceOnUse">
<stop stop-color="#FF2156"/>
<stop offset="1" stop-color="#FF4D4D"/>
</linearGradient>
<linearGradient id="paint1_linear_1_3" x1="21.1381" y1="0.0707145" x2="42.6736" y2="61.6007" gradientUnits="userSpaceOnUse">
<stop stop-color="#FF2156"/>
<stop offset="1" stop-color="#FF4D4D"/>
</linearGradient>
<linearGradient id="paint2_linear_1_3" x1="31.8367" y1="46.9489" x2="74.5193" y2="46.9489" gradientUnits="userSpaceOnUse">
<stop stop-color="#FF2156"/>
<stop offset="1" stop-color="#FF4D4D"/>
</linearGradient>
<linearGradient id="paint3_linear_1_3" x1="40.796" y1="28.1414" x2="52.0555" y2="61.3057" gradientUnits="userSpaceOnUse">
<stop stop-color="#FF2156"/>
<stop offset="1" stop-color="#FF4D4D"/>
</linearGradient>
</defs>
</svg>
