<svg width="127" height="68" viewBox="0 0 127 68" fill="none" xmlns="http://www.w3.org/2000/svg">
<path d="M1 36.7665H13.0324C14.0531 36.7665 14.91 35.9979 15.0206 34.9832L15.8015 27.8166C16.0702 25.3517 19.6971 25.4817 19.7884 27.9596L21.2456 67.4848L24.151 38.5666C24.2536 37.5446 25.1138 36.7665 26.1409 36.7665H28.1339C29.2385 36.7665 30.1339 37.662 30.1339 38.7665V50.1223L31.4207 32.8553C31.5994 30.4582 35.0791 30.3564 35.3976 32.7389L35.7041 35.0315C35.8368 36.0249 36.6843 36.7665 37.6864 36.7665H41.1103C41.7979 36.7665 42.3553 37.324 42.3553 38.0116V38.0116C42.3553 39.5097 44.5145 39.7316 44.8193 38.2649L45.4287 35.3324C45.7204 33.9285 47.7871 34.141 47.7871 35.5749V35.5749C47.7871 36.233 48.3206 36.7665 48.9787 36.7665H52.3737C53.4107 36.7665 54.2757 35.9739 54.3661 34.9407L56.6754 8.5286V60.0438L59.185 38.5348C59.3026 37.5267 60.1566 36.7665 61.1715 36.7665H68.0327" stroke="#FF2855" stroke-linecap="round"/>
<path d="M59.4673 36.7665H71.4996C72.5204 36.7665 73.3773 35.9979 73.4879 34.9832L74.2688 27.8166C74.5374 25.3517 78.1644 25.4817 78.2557 27.9596L79.7129 67.4848L82.6183 38.5666C82.7209 37.5446 83.5811 36.7665 84.6082 36.7665H86.6012C87.7058 36.7665 88.6012 37.662 88.6012 38.7665V50.1223L89.888 32.8553C90.0667 30.4582 93.5464 30.3564 93.8649 32.7389L94.1713 35.0315C94.3041 36.0249 95.1516 36.7665 96.1537 36.7665H99.5776C100.265 36.7665 100.823 37.324 100.823 38.0116V38.0116C100.823 39.5097 102.982 39.7316 103.287 38.2649L103.896 35.3324C104.188 33.9285 106.254 34.141 106.254 35.5749V35.5749C106.254 36.233 106.788 36.7665 107.446 36.7665H110.841C111.878 36.7665 112.743 35.9739 112.833 34.9407L115.143 8.5286V60.0438L117.652 38.5348C117.77 37.5267 118.624 36.7665 119.639 36.7665H126.5" stroke="#FF2855" stroke-linecap="round"/>
</svg>
