<svg width="24" height="24" viewBox="0 0 24 24" fill="none" xmlns="http://www.w3.org/2000/svg">
<g clip-path="url(#clip0_189_5359)">
<path d="M8.25024 12.6442L16.7121 20.0626C16.8096 20.1486 16.9277 20.2078 17.055 20.2344C17.1822 20.2609 17.3142 20.254 17.4379 20.2142C17.5617 20.1744 17.6729 20.1031 17.7608 20.0074C17.8487 19.9116 17.9102 19.7946 17.9393 19.6679L21.7502 3.1145C21.754 3.0979 21.7531 3.0806 21.7477 3.06445C21.7424 3.04831 21.7327 3.03393 21.7198 3.02285C21.7069 3.01177 21.6912 3.00442 21.6745 3.00157C21.6577 2.99872 21.6405 3.00049 21.6246 3.00668L2.62524 10.442C2.5073 10.4874 2.40726 10.5698 2.34014 10.6769C2.27303 10.784 2.24246 10.91 2.25302 11.0359C2.26359 11.1618 2.31472 11.281 2.39874 11.3754C2.48276 11.4698 2.59513 11.5344 2.71899 11.5595L8.25024 12.6442Z" stroke="#FF2C54" stroke-width="2" stroke-linecap="round" stroke-linejoin="round"/>
<path d="M8.25 12.6442L21.6947 3.00854" stroke="#FF2C54" stroke-width="2" stroke-linecap="round" stroke-linejoin="round"/>
<path d="M12.4097 16.2919L9.54 19.2694C9.43631 19.3769 9.30285 19.4511 9.15673 19.4823C9.01061 19.5135 8.85849 19.5004 8.71989 19.4446C8.58128 19.3888 8.4625 19.2929 8.37878 19.1691C8.29507 19.0453 8.25022 18.8994 8.25 18.75V12.644" stroke="#FF2C54" stroke-width="2" stroke-linecap="round" stroke-linejoin="round"/>
</g>
<defs>
<clipPath id="clip0_189_5359">
<rect width="24" height="24" fill="white"/>
</clipPath>
</defs>
</svg>
